<svg xmlns="http://www.w3.org/2000/svg" xmlns:xlink="http://www.w3.org/1999/xlink" width="62" height="48" viewBox="0 0 67.965 67.965"><defs><style>.a,.b{fill:none;}.a{clip-rule:evenodd;}.c{clip-path:url(#a);}.d{clip-path:url(#b);}.e{fill:#da4a48;}.f{clip-path:url(#c);}.g{isolation:isolate;}.h{clip-path:url(#d);}.i{clip-path:url(#e);}.j{clip-path:url(#f);}.k{fill:#fff;}</style><clipPath id="a"><path class="a" d="M138.983,10.965a33.983,33.983,0,0,0,33.983-33.983A33.983,33.983,0,0,0,138.983-57,33.983,33.983,0,0,0,105-23.017,33.983,33.983,0,0,0,138.983,10.965Z" transform="translate(-105 57)"/></clipPath><clipPath id="b"><path class="b" d="M-74,478.369H419.644V-590H-74Z" transform="translate(74 590)"/></clipPath><clipPath id="c"><path class="b" d="M111.436,3.15H165.15V-50.565H111.436Z" transform="translate(-111.436 50.565)"/></clipPath><clipPath id="d"><rect class="b" width="38.677" height="40.359"/></clipPath><clipPath id="e"><path class="b" d="M137.1-28.487v7.724h10.725c-1,4.908-5.177,7.728-10.725,7.728a11.794,11.794,0,0,1-11.815-11.817A11.794,11.794,0,0,1,137.1-36.667a11.561,11.561,0,0,1,7.363,2.636l5.819-5.817a19.907,19.907,0,0,0-13.183-5,19.937,19.937,0,0,0-20,20,19.936,19.936,0,0,0,20,20c10,0,19.089-7.272,19.089-20a16.71,16.71,0,0,0-.452-3.637Z" transform="translate(-117.108 44.845)"/></clipPath><clipPath id="f"><path class="b" d="M111,3.849h54.849V-51H111Z" transform="translate(-111 51)"/></clipPath></defs><g class="c"><g class="d" transform="translate(-213.435 -635.536)"><path class="e" d="M100-62h79.889V17.889H100Z" transform="translate(107.473 691.574)"/></g></g><g class="f" transform="translate(7.673 7.674)"><g class="g" transform="translate(6.97 6.97)"><g class="h" transform="translate(0 0)"><g class="i" transform="translate(-0.207 -0.151)"><g class="j" transform="translate(-7.283 -7.339)"><path class="k" d="M112.108-49.845h51.008V2.069H112.108Z" transform="translate(-110.787 51.222)"/></g></g></g></g></g></svg>