<svg xmlns="http://www.w3.org/2000/svg" width="14" height="14" viewBox="0 0 14 14"><defs><style>.a{fill:#54c66a;}.b{fill:#fff;}</style></defs><g transform="translate(-764 -261)"><circle class="a" cx="7" cy="7" r="7" transform="translate(764 261)"/><path class="b" d="M3.165,11.389.136,8.361a.466.466,0,0,1,0-.659L.8,7.043a.466.466,0,0,1,.659,0l2.04,2.04,4.37-4.369a.466.466,0,0,1,.659,0l.659.659a.466.466,0,0,1,0,.659L3.824,11.389A.466.466,0,0,1,3.165,11.389Z" transform="translate(766.494 260.408)"/></g></svg>