<svg id="Component_38_1" data-name="Component 38 – 1" xmlns="http://www.w3.org/2000/svg" width="12.5" height="16.071" viewBox="0 0 12.5 16.071">
  <path id="Icon_material-bookmark-border" data-name="Icon material-bookmark-border" d="M18.214,4.5H9.286A1.783,1.783,0,0,0,7.509,6.286L7.5,20.571l6.25-2.679L20,20.571V6.286A1.791,1.791,0,0,0,18.214,4.5Zm0,13.393L13.75,15.946,9.286,17.893V6.286h8.929Z" transform="translate(-7.5 -4.5)"/>
  <path id="Icon_material-bookmark" data-name="Icon material-bookmark" d="M16.73,4.5H9.038A1.536,1.536,0,0,0,7.508,6.038L7.5,18.346l5.384-2.308,5.384,2.308V6.038A1.543,1.543,0,0,0,16.73,4.5Z" transform="translate(-6.65 -3.965)"/>
</svg>
