<svg xmlns="http://www.w3.org/2000/svg" width="14.246" height="16.281" viewBox="0 0 14.246 16.281">
  <path id="Icon_awesome-copy" data-name="Icon awesome-copy" d="M10.176,14.246v1.272a.763.763,0,0,1-.763.763H.763A.763.763,0,0,1,0,15.518V3.816a.763.763,0,0,1,.763-.763h2.29v9.412a1.783,1.783,0,0,0,1.781,1.781Zm0-10.939V0H4.833A.763.763,0,0,0,4.07.763v11.7a.763.763,0,0,0,.763.763h8.649a.763.763,0,0,0,.763-.763V4.07H10.939A.765.765,0,0,1,10.176,3.307Zm3.847-.987-2.1-2.1A.763.763,0,0,0,11.386,0h-.193V3.053h3.053V2.86a.763.763,0,0,0-.224-.54Z" fill="#636366"/>
</svg>
