<svg id="Component_38_2" data-name="Component 38 – 2" xmlns="http://www.w3.org/2000/svg" xmlns:xlink="http://www.w3.org/1999/xlink" width="67.965" height="67.965" viewBox="0 0 67.965 67.965">
  <defs>
    <clipPath id="clip-path">
      <path id="Path_10" data-name="Path 10" d="M138.983,10.965a33.983,33.983,0,0,0,33.983-33.983A33.983,33.983,0,0,0,138.983-57,33.983,33.983,0,0,0,105-23.017,33.983,33.983,0,0,0,138.983,10.965Z" transform="translate(-105 57)" fill="none"/>
    </clipPath>
    <clipPath id="clip-path-2">
      <path id="Path_9" data-name="Path 9" d="M-74,478.369H419.644V-590H-74Z" transform="translate(74 590)" fill="none"/>
    </clipPath>
    <clipPath id="clip-path-3">
      <path id="Path_14" data-name="Path 14" d="M111.436,3.15H165.15V-50.565H111.436Z" transform="translate(-111.436 50.565)" fill="none"/>
    </clipPath>
    <clipPath id="clip-path-4">
      <rect id="Rectangle_2" data-name="Rectangle 2" width="38.677" height="40.359" fill="none"/>
    </clipPath>
    <clipPath id="clip-path-5">
      <path id="Path_13" data-name="Path 13" d="M137.1-28.487v7.724h10.725c-1,4.908-5.177,7.728-10.725,7.728a11.794,11.794,0,0,1-11.815-11.817A11.794,11.794,0,0,1,137.1-36.667a11.561,11.561,0,0,1,7.363,2.636l5.819-5.817a19.907,19.907,0,0,0-13.183-5,19.937,19.937,0,0,0-20,20,19.936,19.936,0,0,0,20,20c10,0,19.089-7.272,19.089-20a16.71,16.71,0,0,0-.452-3.637Z" transform="translate(-117.108 44.845)" fill="none"/>
    </clipPath>
    <clipPath id="clip-path-6">
      <path id="Path_12" data-name="Path 12" d="M111,3.849h54.849V-51H111Z" transform="translate(-111 51)" fill="none"/>
    </clipPath>
  </defs>
  <g id="Group_10" data-name="Group 10" clip-path="url(#clip-path)">
    <g id="Group_9" data-name="Group 9" transform="translate(-213.435 -635.536)" clip-path="url(#clip-path-2)">
      <path id="Path_8" data-name="Path 8" d="M100-62h79.889V17.889H100Z" transform="translate(107.473 691.574)" fill="#da4a48"/>
    </g>
  </g>
  <g id="Group_15" data-name="Group 15" transform="translate(7.673 7.674)" clip-path="url(#clip-path-3)">
    <g id="Group_14" data-name="Group 14" transform="translate(6.97 6.97)" style="mix-blend-mode: normal;isolation: isolate">
      <g id="Group_13" data-name="Group 13" transform="translate(0 0)" clip-path="url(#clip-path-4)">
        <g id="Group_12" data-name="Group 12" transform="translate(-0.207 -0.151)" clip-path="url(#clip-path-5)">
          <g id="Group_11" data-name="Group 11" transform="translate(-7.283 -7.339)" clip-path="url(#clip-path-6)">
            <path id="Path_11" data-name="Path 11" d="M112.108-49.845h51.008V2.069H112.108Z" transform="translate(-110.787 51.222)" fill="#fff"/>
          </g>
        </g>
      </g>
    </g>
  </g>
</svg>
