<svg xmlns="http://www.w3.org/2000/svg" width="903" height="311" viewBox="0 0 903 311">
  <g id="Group_628" data-name="Group 628" transform="translate(-281 -1844)">
    <g id="Rectangle_286" data-name="Rectangle 286" transform="translate(281 1844)" fill="none" stroke="#2c2c2e" stroke-width="1">
      <rect width="903" height="311" stroke="none"/>
      <rect x="0.5" y="0.5" width="902" height="310" fill="none"/>
    </g>
    <g id="Component_27_131" data-name="Component 27 – 131" transform="translate(309 1933)">
      <rect id="Rectangle_266" data-name="Rectangle 266" width="212" height="100" fill="#f1e3c8"/>
      <text id="_30_min_meeting" data-name="30 min meeting" transform="translate(10 29)" fill="#2c2c2e" font-size="20" font-family="Prohibition-Regular, Prohibition"><tspan x="0" y="0">30 min meeting</tspan></text>
      <text id="_30_min" data-name="30 min" transform="translate(10 52)" fill="#2c2c2e" font-size="14" font-family="SFProDisplay-Regular, SF Pro Display"><tspan x="0" y="0">30 min</tspan></text>
      <text id="Location:_None_specified" data-name="Location: None specified" transform="translate(10 71)" fill="#2c2c2e" font-size="14" font-family="SFProDisplay-Regular, SF Pro Display"><tspan x="0" y="0">Location: None specified</tspan></text>
      <text id="_-15_30" data-name="-15 / +30" transform="translate(10 90)" fill="#2c2c2e" font-size="14" font-family="SFProDisplay-Regular, SF Pro Display"><tspan x="0" y="0">-15 / +30</tspan></text>
      <path id="Icon_ionic-ios-bookmark" data-name="Icon ionic-ios-bookmark" d="M9,4.938V23.492a.2.2,0,0,0,.313.156l5.7-4.492a.4.4,0,0,1,.469,0l5.7,4.492a.2.2,0,0,0,.313-.156V4.938a1.561,1.561,0,0,0-1.562-1.562H10.563A1.561,1.561,0,0,0,9,4.938Z" transform="translate(180.5 -3.375)"/>
      <g id="Icon_feather-link" data-name="Icon feather-link" transform="translate(183.824 76.023)">
        <path id="Path_59" data-name="Path 59" d="M22.2,4.21a3,3,0,0,0-4.52-.324l-1.8,1.8a3,3,0,1,0,4.239,4.239L21.148,8.9" transform="translate(-9.324 4.102)" fill="none" stroke="#000" stroke-linecap="round" stroke-linejoin="round" stroke-width="1.5"/>
        <path id="Path_60" data-name="Path 60" d="M2.993,20.221a3.06,3.06,0,0,0,4.615.33l1.836-1.836a3.06,3.06,0,1,0-4.327-4.327L4.07,15.435" transform="translate(7.612 -10.441)" fill="none" stroke="#000" stroke-linecap="round" stroke-linejoin="round" stroke-width="1.5"/>
      </g>
    </g>
    <g id="Component_27_132" data-name="Component 27 – 132" transform="translate(537 1933)">
      <rect id="Rectangle_266-2" data-name="Rectangle 266" width="212" height="100" fill="#f1e3c8"/>
      <text id="_60_min_meeting" data-name="60 min meeting" transform="translate(10 29)" fill="#2c2c2e" font-size="20" font-family="Prohibition-Regular, Prohibition"><tspan x="0" y="0">60 min meeting</tspan></text>
      <text id="_30_min-2" data-name="30 min" transform="translate(10 52)" fill="#2c2c2e" font-size="14" font-family="SFProDisplay-Regular, SF Pro Display"><tspan x="0" y="0">30 min</tspan></text>
      <text id="Location:_None_specified-2" data-name="Location: None specified" transform="translate(10 71)" fill="#2c2c2e" font-size="14" font-family="SFProDisplay-Regular, SF Pro Display"><tspan x="0" y="0">Location: None specified</tspan></text>
      <text id="_-15_30-2" data-name="-15 / +30" transform="translate(10 90)" fill="#2c2c2e" font-size="14" font-family="SFProDisplay-Regular, SF Pro Display"><tspan x="0" y="0">-15 / +30</tspan></text>
      <path id="Icon_ionic-ios-bookmark-2" data-name="Icon ionic-ios-bookmark" d="M9,4.938V23.492a.2.2,0,0,0,.313.156l5.7-4.492a.4.4,0,0,1,.469,0l5.7,4.492a.2.2,0,0,0,.313-.156V4.938a1.561,1.561,0,0,0-1.562-1.562H10.563A1.561,1.561,0,0,0,9,4.938Z" transform="translate(180.5 -3.375)"/>
      <g id="Icon_feather-link-2" data-name="Icon feather-link" transform="translate(183.824 76.023)">
        <path id="Path_59-2" data-name="Path 59" d="M22.2,4.21a3,3,0,0,0-4.52-.324l-1.8,1.8a3,3,0,1,0,4.239,4.239L21.148,8.9" transform="translate(-9.324 4.102)" fill="none" stroke="#000" stroke-linecap="round" stroke-linejoin="round" stroke-width="1.5"/>
        <path id="Path_60-2" data-name="Path 60" d="M2.993,20.221a3.06,3.06,0,0,0,4.615.33l1.836-1.836a3.06,3.06,0,1,0-4.327-4.327L4.07,15.435" transform="translate(7.612 -10.441)" fill="none" stroke="#000" stroke-linecap="round" stroke-linejoin="round" stroke-width="1.5"/>
      </g>
    </g>
    <g id="Component_21_95" data-name="Component 21 – 95" transform="translate(309 1873)">
      <path id="Path_18" data-name="Path 18" d="M0,0H440V50H0Z" fill="#f1e3c8" opacity="0.996"/>
      <text id="Business_Hours" data-name="Business Hours" transform="translate(149 36)" fill="#2c2c2e" font-size="24" font-family="Prohibition-Regular, Prohibition"><tspan x="0" y="0">Business Hours</tspan></text>
    </g>
    <g id="Component_19_224" data-name="Component 19 – 224" transform="translate(420 2036)">
      <rect id="Rectangle_175" data-name="Rectangle 175" width="85" height="40" fill="#636366"/>
      <text id="Copy_Link" data-name="Copy Link" transform="translate(5 27)" fill="#e5e5eb" font-size="18" font-family="SFProDisplay-Regular, SF Pro Display"><tspan x="0" y="0">Copy Link</tspan></text>
    </g>
    <g id="Path_79" data-name="Path 79" transform="translate(826 1963)" fill="#fff">
      <path d="M 317.25 39.25 L 0.75 39.25 L 0.75 0.75 L 317.25 0.75 L 317.25 39.25 Z" stroke="none"/>
      <path d="M 1.5 1.5 L 1.5 38.5 L 316.5 38.5 L 316.5 1.5 L 1.5 1.5 M 0 0 L 318 0 L 318 40 L 0 40 L 0 0 Z" stroke="none" fill="#636366"/>
    </g>
    <text id="www.Skedule_30min_" data-name="www.Skedule/30min/ " transform="translate(836 1990)" fill="#636366" font-size="18" font-family="SFProDisplay-Regular, SF Pro Display"><tspan x="0" y="0">www.Skedule/30min/ </tspan></text>
    <path id="Icon_awesome-hand-point-up" data-name="Icon awesome-hand-point-up" d="M5.581,0a1.855,1.855,0,0,1,1.8,1.843V5.951A2.024,2.024,0,0,1,10.3,6.21a1.885,1.885,0,0,1,2.564.677c2.022-.369,2.932.9,2.932,2.987,0,.113-.008.546-.008.658.007,2.55-1.278,3.164-1.576,5.09a.986.986,0,0,1-.975.834H6.182a1.975,1.975,0,0,1-1.8-1.171C3.843,14.1,2.361,11.36,1.2,10.861A1.754,1.754,0,0,1,0,9.216,1.976,1.976,0,0,1,2.753,7.4a5.592,5.592,0,0,1,1.025.582V1.843A1.885,1.885,0,0,1,5.581,0ZM5.6,17.115h7.9a.987.987,0,0,1,.987.987v1.975a.987.987,0,0,1-.987.987H5.6a.987.987,0,0,1-.987-.987V18.1A.987.987,0,0,1,5.6,17.115Zm6.912,1.152a.823.823,0,1,0,.823.823A.823.823,0,0,0,12.507,18.267Z" transform="translate(502.35 2022)" fill="#e45b1b"/>
    <g id="Component_19_225" data-name="Component 19 – 225" transform="translate(848 2009)">
      <rect id="Rectangle_175-2" data-name="Rectangle 175" width="255" height="40" fill="#636366"/>
      <text id="Paste_Link_in_emails_or_messages" data-name="Paste Link in emails or messages" transform="translate(5 27)" fill="#e5e5eb" font-size="18" font-family="SFProDisplay-Regular, SF Pro Display"><tspan x="0" y="0">Paste Link in emails or messages</tspan></text>
    </g>
    <path id="Icon_awesome-hand-point-up-2" data-name="Icon awesome-hand-point-up" d="M5.581,0a1.855,1.855,0,0,1,1.8,1.843V5.951A2.024,2.024,0,0,1,10.3,6.21a1.885,1.885,0,0,1,2.564.677c2.022-.369,2.932.9,2.932,2.987,0,.113-.008.546-.008.658.007,2.55-1.278,3.164-1.576,5.09a.986.986,0,0,1-.975.834H6.182a1.975,1.975,0,0,1-1.8-1.171C3.843,14.1,2.361,11.36,1.2,10.861A1.754,1.754,0,0,1,0,9.216,1.976,1.976,0,0,1,2.753,7.4a5.592,5.592,0,0,1,1.025.582V1.843A1.885,1.885,0,0,1,5.581,0ZM5.6,17.115h7.9a.987.987,0,0,1,.987.987v1.975a.987.987,0,0,1-.987.987H5.6a.987.987,0,0,1-.987-.987V18.1A.987.987,0,0,1,5.6,17.115Zm6.912,1.152a.823.823,0,1,0,.823.823A.823.823,0,0,0,12.507,18.267Z" transform="translate(832.102 1994)" fill="#e45b1b"/>
  </g>
</svg>
