<svg xmlns="http://www.w3.org/2000/svg" width="114.203" height="28.571" viewBox="0 0 114.203 28.571">
  <g id="Group_56" data-name="Group 56" transform="translate(-1732 -372.885)">
    <path id="Path_64" data-name="Path 64" d="M7.823,28.57a7.329,7.329,0,0,1-3.93-1.1,8.256,8.256,0,0,1-2.828-2.918A7.823,7.823,0,0,1,0,20.55V18.715a.176.176,0,0,1,.148-.2.171.171,0,0,1,.051,0H4.671q.159,0,.16.2V20.55A3.182,3.182,0,0,0,5.7,22.8a2.845,2.845,0,0,0,4.24-.02,3.2,3.2,0,0,0,.873-2.235A3.056,3.056,0,0,0,8.9,18l-2-1.122q-1.352-.753-2.554-1.431A8.387,8.387,0,0,1,1.1,12.23,8.963,8.963,0,0,1,.042,7.866,7.577,7.577,0,0,1,1.12,3.856,8.028,8.028,0,0,1,3.972,1.038,7.5,7.5,0,0,1,7.823,0a7.464,7.464,0,0,1,3.89,1.057,8.029,8.029,0,0,1,2.833,2.833A7.607,7.607,0,0,1,15.6,7.861v3.272a.141.141,0,0,1-.119.16.136.136,0,0,1-.04,0H10.975a.141.141,0,0,1-.16-.16l-.04-3.272A3.078,3.078,0,0,0,9.9,5.587a2.837,2.837,0,0,0-2.075-.873,2.793,2.793,0,0,0-2.12.938,3.133,3.133,0,0,0-.873,2.215,4.013,4.013,0,0,0,.559,2.195,5.387,5.387,0,0,0,2.03,1.671q.2.125.778.419t1.257.678q.678.374,1.217.658t.658.359a9.506,9.506,0,0,1,3.152,2.728,6.642,6.642,0,0,1,1.157,3.97,7.935,7.935,0,0,1-3.89,6.958,7.538,7.538,0,0,1-3.93,1.067" transform="translate(1732 372.885)" fill="#303032"/>
    <path id="Path_65" data-name="Path 65" d="M224.113,32.149q-.16,0-.16-.2l.085-27.373q0-.2.16-.2h4.469q.16,0,.16.2v9.457l6.265-9.5a.345.345,0,0,1,.279-.16h4.589q.16,0,.08.16l-6.9,11.013,7.736,16.44q.08.16-.2.16h-4.863a.214.214,0,0,1-.239-.16l-5.387-11.731-1.406,2.195v9.5q0,.2-.16.2Z" transform="translate(1528.478 368.907)" fill="#303032"/>
    <path id="Path_66" data-name="Path 66" d="M451.106,32.134q-.16,0-.16-.2l.04-27.412a.141.141,0,0,1,.16-.16h12.808q.16,0,.16.2V9.031a.141.141,0,0,1-.119.16.136.136,0,0,1-.04,0h-8.18v6.225h8.18a.141.141,0,0,1,.16.119.135.135,0,0,1,0,.04l.04,4.509a.141.141,0,0,1-.16.16h-8.22v6.983h8.215q.16,0,.16.2v4.549a.141.141,0,0,1-.16.16Z" transform="translate(1322.195 368.922)" fill="#303032"/>
    <path id="Path_67" data-name="Path 67" d="M671.093,7.838A8.147,8.147,0,0,0,668.2,4.945a7.438,7.438,0,0,0-4.01-1.037l-7.462.04a.135.135,0,0,0-.04,0,.141.141,0,0,0-.119.16l-.08,27.413a.176.176,0,0,0,.2.2l7.142-.04a8.351,8.351,0,0,0,7.217-4.17,8.136,8.136,0,0,0,1.122-4.21V11.848a7.713,7.713,0,0,0-1.077-4.01M667.342,23.3a3.411,3.411,0,0,1-1.017,2.474,3.358,3.358,0,0,1-2.494,1.037h-2.474l.04-18.075,2.793-.04a2.892,2.892,0,0,1,2.215.9,3.029,3.029,0,0,1,.938,2.215Z" transform="translate(1135.405 369.336)" fill="#303032"/>
    <path id="Path_68" data-name="Path 68" d="M888.086,149.5a7.357,7.357,0,0,1-3.91-1.1,8.149,8.149,0,0,1-2.847-2.933,7.929,7.929,0,0,1-1.057-4.03l.052-2.369a.141.141,0,0,1,.119-.16.144.144,0,0,1,.04,0h4.462a.141.141,0,0,1,.16.119.139.139,0,0,1,0,.04l.027,2.369a3.275,3.275,0,0,0,.858,2.294,2.732,2.732,0,0,0,2.095.938,2.776,2.776,0,0,0,2.135-.938,3.275,3.275,0,0,0,.858-2.294l-.022-2.369a.141.141,0,0,1,.119-.16.144.144,0,0,1,.04,0h4.469a.141.141,0,0,1,.16.119.139.139,0,0,1,0,.04l.107,2.369a8.066,8.066,0,0,1-3.9,6.983,7.5,7.5,0,0,1-3.966,1.077" transform="translate(932.036 246.652)" fill="#e45b1b"/>
    <path id="Path_69" data-name="Path 69" d="M1106.717,32.13q-.16,0-.16-.2l.04-27.373a.175.175,0,0,1,.148-.2.179.179,0,0,1,.051,0h4.429a.176.176,0,0,1,.2.148.179.179,0,0,1,0,.051l-.04,22.664h8.22a.176.176,0,0,1,.2.148.18.18,0,0,1,0,.051V31.93a.176.176,0,0,1-.2.2Z" transform="translate(726.397 368.926)" fill="#303032"/>
    <path id="Path_70" data-name="Path 70" d="M884.48,62.765a2.182,2.182,0,1,1-2.182,2.182,2.182,2.182,0,0,1,2.182-2.182" transform="translate(930.196 315.846)" fill="#e45b1b"/>
    <path id="Path_71" data-name="Path 71" d="M1007.489,62.765a2.182,2.182,0,1,1-2.182,2.182,2.182,2.182,0,0,1,2.182-2.182" transform="translate(818.409 315.846)" fill="#e45b1b"/>
    <rect id="Rectangle_283" data-name="Rectangle 283" width="114.203" height="28.57" transform="translate(1732 372.885)" fill="none"/>
  </g>
</svg>
