<svg xmlns="http://www.w3.org/2000/svg" width="17.058" height="19.495" viewBox="0 0 17.058 19.495">
  <path id="Icon_awesome-trash-alt" data-name="Icon awesome-trash-alt" d="M1.218,17.667A1.828,1.828,0,0,0,3.046,19.5H14.012a1.828,1.828,0,0,0,1.828-1.828V4.874H1.218ZM11.575,7.92a.609.609,0,0,1,1.218,0v8.529a.609.609,0,0,1-1.218,0Zm-3.655,0a.609.609,0,0,1,1.218,0v8.529a.609.609,0,0,1-1.218,0Zm-3.655,0a.609.609,0,0,1,1.218,0v8.529a.609.609,0,0,1-1.218,0Zm12.184-6.7H11.88L11.522.506A.914.914,0,0,0,10.7,0H6.351a.9.9,0,0,0-.815.506l-.358.712H.609A.609.609,0,0,0,0,1.828V3.046a.609.609,0,0,0,.609.609h15.84a.609.609,0,0,0,.609-.609V1.828A.609.609,0,0,0,16.449,1.218Z" transform="translate(0 0)"/>
</svg>
