<svg xmlns="http://www.w3.org/2000/svg" width="13" height="13" viewBox="0 0 13 13"><defs><style>.a{fill:#ffe626;}.b{fill:#fff;}</style></defs><g transform="translate(-764 -511)"><circle class="a" cx="6.5" cy="6.5" r="6.5" transform="translate(764 511)"/><path class="b" d="M2.8,10.6.121,7.925a.412.412,0,0,1,0-.583L.7,6.759a.412.412,0,0,1,.583,0L3.092,8.564,6.958,4.7a.412.412,0,0,1,.583,0l.583.583a.412.412,0,0,1,0,.583L3.383,10.6A.412.412,0,0,1,2.8,10.6Z" transform="translate(766.207 509.949)"/></g></svg>